<svg xmlns="http://www.w3.org/2000/svg" width="37.268" height="37.268" viewBox="0 0 37.268 37.268"><defs><style>.a{fill:#f82264;}</style></defs><path class="a" d="M37.268,6.532A6.529,6.529,0,0,0,25.93,2.113,18.194,18.194,0,0,0,18.385.5,18.385,18.385,0,1,0,36.771,18.882a18.192,18.192,0,0,0-1.616-7.544A6.515,6.515,0,0,0,37.268,6.532ZM30.735,1.839a4.694,4.694,0,1,1-4.694,4.694A4.7,4.7,0,0,1,30.735,1.839ZM18.385,35.429a16.547,16.547,0,0,1,0-33.094,16.379,16.379,0,0,1,6.487,1.32,6.529,6.529,0,0,0,8.74,8.74,16.38,16.38,0,0,1,1.32,6.487A16.566,16.566,0,0,1,18.385,35.429Z"/><g transform="translate(27.376 3.173)"><path class="a" d="M381.907,46.038h-1.52v-1.52a.919.919,0,1,0-1.838,0v1.52h-1.52a.919.919,0,1,0,0,1.838h1.52V49.4a.919.919,0,1,0,1.838,0v-1.52h1.52a.919.919,0,1,0,0-1.838Z" transform="translate(-376.108 -43.598)"/></g><g transform="translate(8.821 6.606)"><path class="a" d="M136.394,106.327a2.984,2.984,0,0,1-2.911-2.278,5.878,5.878,0,0,0,1.156-1.186,7.876,7.876,0,0,0,1.413-3.621.83.83,0,0,0,.13-.213,6.186,6.186,0,0,0,.48-2.409,5.674,5.674,0,0,0-5.453-5.86,5.076,5.076,0,0,0-2.23.517,4.049,4.049,0,0,0-.764.142c-2.52.728-3.946,3.766-3.179,6.772a4.434,4.434,0,0,0,.415,1.089,7.2,7.2,0,0,0,2.558,4.76,2.948,2.948,0,0,1-2.912,2.286,4.053,4.053,0,0,0-3.917,4.046v2.644a1.8,1.8,0,0,0,1.8,1.8h15.527a1.8,1.8,0,0,0,1.8-1.8v-2.644A4.053,4.053,0,0,0,136.394,106.327ZM128.676,93.01a2.438,2.438,0,0,1,.565-.091.829.829,0,0,0,.347-.094,3.459,3.459,0,0,1,1.622-.408,3.98,3.98,0,0,1,3.783,3.841,2.663,2.663,0,0,0-1.423-.41h-3.744a.738.738,0,0,1-.445-.147.746.746,0,0,1-.247-.32.951.951,0,0,0-1.8.117,4.8,4.8,0,0,1-.808,1.669C126.275,95.238,127.166,93.446,128.676,93.01Zm-1.592,6a6.506,6.506,0,0,0,1.411-1.907,2.38,2.38,0,0,0,1.332.4h3.744a1.026,1.026,0,0,1,.911.556,5.746,5.746,0,0,1-2.246,4.853,2.838,2.838,0,0,1-1.486.443C128.976,103.352,127.418,101.472,127.084,99.005Zm6.107,7.72a4.149,4.149,0,0,1-4.888,0,4.577,4.577,0,0,0,1.206-1.9,4.248,4.248,0,0,0,1.24.185,4.3,4.3,0,0,0,1.234-.183A4.578,4.578,0,0,0,133.191,106.725Zm5.464,6.291h0a.146.146,0,0,1-.146.146H122.982a.146.146,0,0,1-.146-.146v-2.644a2.4,2.4,0,0,1,2.394-2.394,5.207,5.207,0,0,0,1.607-.319,5.806,5.806,0,0,0,7.824,0,4.428,4.428,0,0,0,1.6.318,2.4,2.4,0,0,1,2.394,2.394v2.644Z" transform="translate(-121.181 -90.761)"/></g></svg>