<svg xmlns="http://www.w3.org/2000/svg" width="44.703" height="38.415" viewBox="0 0 44.703 38.415"><defs><style>.a{fill:#f82264;}</style></defs><path class="a" d="M246.873,201.734a.873.873,0,1,0-.873-.873A.873.873,0,0,0,246.873,201.734Zm0,0" transform="translate(-224.522 -182.527)"/><path class="a" d="M41.21,12.223H36.047L28.1,1.3a2.62,2.62,0,0,0-4.55,2.6.889.889,0,0,0,.067.1l6.23,8.228h-15l6.23-8.228a.936.936,0,0,0,.067-.1A2.62,2.62,0,0,0,16.6,1.3L8.655,12.223H3.492a3.493,3.493,0,0,0-1.118,6.8.869.869,0,0,0,.534.183.845.845,0,0,1,.118.008.871.871,0,0,1,.742.709l2.97,16.341a2.619,2.619,0,0,0,2.577,2.15H35.387a2.619,2.619,0,0,0,2.577-2.151l2.97-16.341a.871.871,0,0,1,.743-.709.811.811,0,0,1,.116-.008.868.868,0,0,0,.537-.186,3.492,3.492,0,0,0-1.121-6.8ZM25.057,3a.873.873,0,0,1,1.549-.8.821.821,0,0,0,.057.09l7.225,9.94H32.041Zm-7.018-.714a.937.937,0,0,0,.057-.089.873.873,0,0,1,1.55.8l-6.984,9.225H10.814ZM41.21,17.462H25.844a.869.869,0,1,0,0,1.737H39.324a2.651,2.651,0,0,0-.107.4l-2.971,16.35a.873.873,0,0,1-.859.717H9.315a.873.873,0,0,1-.859-.717L5.485,19.612a2.636,2.636,0,0,0-.107-.4H18.859a.873.873,0,0,0,0-1.746H3.492a1.746,1.746,0,0,1,0-3.492H41.21a1.746,1.746,0,1,1,0,3.492Zm0,0" transform="translate(0 -0.001)"/><path class="a" d="M228.619,249.988A2.622,2.622,0,0,0,226,252.607v6.985a2.619,2.619,0,1,0,5.239,0v-6.985A2.619,2.619,0,0,0,228.619,249.988Zm.873,9.6a.873.873,0,1,1-1.746,0v-6.985a.873.873,0,0,1,1.746,0Zm0,0" transform="translate(-206.268 -228.162)"/><path class="a" d="M328.619,262.211a2.622,2.622,0,0,0,2.619-2.619v-6.985a2.619,2.619,0,1,0-5.239,0v6.985A2.622,2.622,0,0,0,328.619,262.211Zm-.873-9.6a.873.873,0,0,1,1.746,0v6.985a.873.873,0,1,1-1.746,0Zm0,0" transform="translate(-297.537 -228.162)"/><path class="a" d="M128.619,249.988A2.622,2.622,0,0,0,126,252.607v6.985a2.619,2.619,0,1,0,5.239,0v-6.985A2.619,2.619,0,0,0,128.619,249.988Zm.873,9.6a.873.873,0,1,1-1.746,0v-6.985a.873.873,0,0,1,1.746,0Zm0,0" transform="translate(-114.999 -228.162)"/></svg>