<svg xmlns="http://www.w3.org/2000/svg" width="45.129" height="40.62" viewBox="0 0 45.129 40.62"><defs><style>.a{fill:#f82264;}</style></defs><g transform="translate(-2 -8)"><path class="a" d="M38.856,8a8.279,8.279,0,0,0-8.274,8.274,8.025,8.025,0,0,0,.324,2.258l-17.353,0-.88-8.356A2.407,2.407,0,0,0,10.274,8H4.257a2.2,2.2,0,0,0-1.587.662,2.231,2.231,0,0,0-.609,2.106,2.356,2.356,0,0,0,2.317,1.745H8.1l2.836,25.581a3.761,3.761,0,0,0,.09,7.514h3.836a3.761,3.761,0,0,0,7.371,0H29.9a3.761,3.761,0,0,0,7.371,0H40.36a.752.752,0,1,0,0-1.5H37.276a3.761,3.761,0,0,0-7.371,0H22.233a3.761,3.761,0,0,0-7.371,0H11.026a2.256,2.256,0,1,1,0-4.513H39.871a2.249,2.249,0,0,0,2.211-1.828l3.106-16.179A8.264,8.264,0,0,0,38.856,8ZM33.591,42.6a2.256,2.256,0,1,1-2.256,2.256A2.256,2.256,0,0,1,33.591,42.6Zm-15.043,0a2.256,2.256,0,1,1-2.256,2.256A2.256,2.256,0,0,1,18.547,42.6Zm22.061-5.122a.752.752,0,0,1-.737.609H12.455L9.589,12.34a1.5,1.5,0,0,0-1.5-1.331H4.377a.851.851,0,0,1-.85-.579.714.714,0,0,1,.211-.707A.7.7,0,0,1,4.257,9.5h6.017a.912.912,0,0,1,.9.827l.955,9.026a.752.752,0,0,0,.745.677H31.492a8.361,8.361,0,0,0,.985,1.5H13.17a.752.752,0,0,0-.557.248.779.779,0,0,0-.2.579L13.749,35.9a.752.752,0,0,0,.745.677H38.856a.752.752,0,0,0,.745-.632l1.978-11.869a8.754,8.754,0,0,0,1.768-.865ZM27.573,30.565V27.556H33l-.338,3.009Zm4.927,1.5-.338,3.009H27.573V32.069Zm-4.927-6.017V23.043H33.5l-.331,3.009Zm-6.6,4.513-.338-3.009h5.431v3.009Zm5.092,1.5v3.009H21.481l-.338-3.009Zm-5.6-6.017-.331-3.009h5.927v3.009Zm-1.346,1.5.338,3.009H14.734l-.293-3.009Zm-4.836-1.5L14,23.043h4.626l.338,3.009Zm5.34,6.017.331,3.009H15.178l-.293-3.009Zm19.842-4.513-.5,3.009H34.177l.338-3.009Zm-4.791-1.5.278-2.482a8,8,0,0,0,5.032.888l-.271,1.595Zm4.039,6.017-.5,3.009H33.681l.331-3.009Zm.135-9.026a6.769,6.769,0,1,1,6.769-6.769A6.769,6.769,0,0,1,38.856,23.043Z"/><path class="a" d="M48.513,18.017v3.761a.752.752,0,1,0,1.5,0V18.017h3.761a.752.752,0,1,0,0-1.5H50.017V12.752a.752.752,0,1,0-1.5,0v3.761H44.752a.752.752,0,1,0,0,1.5Z" transform="translate(-10.409 -0.991)"/></g></svg>