<svg xmlns="http://www.w3.org/2000/svg" width="48.221" height="48.221" viewBox="0 0 48.221 48.221"><defs><style>.a{fill:#f82264;}</style></defs><g transform="translate(0)"><path class="a" d="M216.806,433.607h3.215a.8.8,0,0,0,0-1.607h-3.215a.8.8,0,0,0,0,1.607Z" transform="translate(-194.302 -388.601)"/><path class="a" d="M96.806,12.055a.8.8,0,0,0,.8-.8V6.43h25.718v6.43a.8.8,0,1,0,1.607,0V3.215c0-1.447-1.855-3.215-4.018-3.215h-20.9A4.023,4.023,0,0,0,96,4.018v7.233A.8.8,0,0,0,96.806,12.055Zm.8-8.037a2.411,2.411,0,0,1,2.411-2.411h20.9a2.5,2.5,0,0,1,2.411,1.607V4.822H97.609v-.8Z" transform="translate(-86.358)"/><path class="a" d="M124.131,352a.8.8,0,0,0-.8.8v4.018H97.609v-3.215a.8.8,0,1,0-1.607,0v7.233a4.023,4.023,0,0,0,4.018,4.018h20.9a4.023,4.023,0,0,0,4.018-4.018V352.8A.8.8,0,0,0,124.131,352Zm-.8,8.841a2.411,2.411,0,0,1-2.411,2.411h-20.9a2.411,2.411,0,0,1-2.411-2.411V358.43h25.718Z" transform="translate(-86.358 -316.638)"/><path class="a" d="M202.413,24h-1.607a.8.8,0,1,0,0,1.607h1.607a.8.8,0,0,0,0-1.607Z" transform="translate(-179.91 -21.589)"/><path class="a" d="M250.413,24h-1.607a.8.8,0,1,0,0,1.607h1.607a.8.8,0,0,0,0-1.607Z" transform="translate(-223.088 -21.589)"/><path class="a" d="M227.946,109.112h0a.8.8,0,0,0-.619-.29h-21.1l-.41-2.764A2.426,2.426,0,0,0,203.437,104H200v1.607h3.435a.8.8,0,0,1,.8.686l2.808,18.955a2.426,2.426,0,0,0,2.385,2.058H211.4a2.4,2.4,0,0,0,4.526,0h3.511a2.411,2.411,0,1,0,0-1.607h-3.511a2.4,2.4,0,0,0-4.526,0h-1.975a.809.809,0,0,1-.8-.686l-.256-1.725h16.542a.8.8,0,0,0,.789-.655l2.411-12.859A.8.8,0,0,0,227.946,109.112ZM221.7,125.7a.8.8,0,1,1-.8.8A.8.8,0,0,1,221.7,125.7Zm-8.037,0a.8.8,0,1,1-.8.8A.8.8,0,0,1,213.665,125.7Zm10.585-4.018H208.137l-1.666-11.252h19.892Z" transform="translate(-179.91 -93.552)"/><path class="a" d="M20.9,146.448A10.448,10.448,0,1,0,10.45,156.9,10.448,10.448,0,0,0,20.9,146.448Zm-19.289,0a8.841,8.841,0,1,1,8.841,8.841A8.841,8.841,0,0,1,1.609,146.448Z" transform="translate(-0.002 -122.337)"/><path class="a" d="M76.02,181.663v-.918a3.208,3.208,0,0,0-.8-6.315,1.607,1.607,0,1,1,1.607-1.607.8.8,0,1,0,1.607,0,3.215,3.215,0,0,0-2.411-3.1V168.8a.8.8,0,0,0-1.607,0v.918a3.208,3.208,0,0,0,.8,6.315,1.607,1.607,0,1,1-1.607,1.607.8.8,0,1,0-1.607,0,3.215,3.215,0,0,0,2.411,3.1v.918a.8.8,0,0,0,1.607,0Z" transform="translate(-64.769 -151.123)"/><path class="a" d="M280.806,177.607h11.252a.8.8,0,0,0,0-1.607H280.806a.8.8,0,0,0,0,1.607Z" transform="translate(-251.873 -158.319)"/><path class="a" d="M416.806,177.607h1.607a.8.8,0,1,0,0-1.607h-1.607a.8.8,0,1,0,0,1.607Z" transform="translate(-374.21 -158.319)"/></g></svg>