<svg xmlns="http://www.w3.org/2000/svg" width="48.925" height="37.509" viewBox="0 0 48.925 37.509"><defs><style>.a{fill:#f82264;}</style></defs><path class="a" d="M50.686,31.839,40.563,21.717A2.428,2.428,0,0,0,38.833,21h-14v1.631h4.077V34.862h1.631V22.631h8.294a.815.815,0,0,1,.577.239L40.8,24.262H37.063a1.631,1.631,0,0,0-1.631,1.631v7.339a1.631,1.631,0,0,0,1.631,1.631H49.294v6.523a.815.815,0,0,1-.815.815h-1.7a5.7,5.7,0,0,0-11.285,0H23.951a5.7,5.7,0,0,0-11.285,0h-1.7a.815.815,0,0,1-.815-.815V34.047H8.523v7.339a2.446,2.446,0,0,0,2.446,2.446h1.7a5.69,5.69,0,0,0,1.656,3.262H2v1.631H41.14a5.713,5.713,0,0,0,5.643-4.892h1.7a2.446,2.446,0,0,0,2.446-2.446v-8.97a.815.815,0,0,0-.239-.576ZM14.231,43.016a4.077,4.077,0,1,1,4.077,4.077A4.077,4.077,0,0,1,14.231,43.016Zm8.064,4.077a5.69,5.69,0,0,0,1.656-3.262H35.5a5.69,5.69,0,0,0,1.656,3.262Zm18.845,0a4.077,4.077,0,1,1,4.077-4.077A4.077,4.077,0,0,1,41.14,47.093ZM37.063,33.231V25.892h5.37l6.861,6.861v.478Z" transform="translate(-2 -11.215)"/><rect class="a" width="1.206" height="1.206" transform="translate(15.93 31.236)"/><rect class="a" width="1.809" height="1.206" transform="translate(38.245 31.236)"/><rect class="a" width="3.619" height="1.206" transform="translate(0.249 28.824)"/><rect class="a" width="2.412" height="1.809" transform="translate(1.455 25.205)"/><rect class="a" width="1.206" height="1.206" transform="translate(2.662 22.189)"/><path class="a" d="M12.6,30.2A10.6,10.6,0,1,0,2,19.6,10.6,10.6,0,0,0,12.6,30.2Zm0-19.57a8.97,8.97,0,1,1-8.97,8.97,8.97,8.97,0,0,1,8.97-8.97Z" transform="translate(-2 -9)"/><path class="a" d="M13.708,27.677a.815.815,0,0,0,.576-.239c.525-.525,5.132-5.233,5.132-8.731A5.708,5.708,0,1,0,8,18.708c0,3.5,4.606,8.206,5.131,8.731A.815.815,0,0,0,13.708,27.677Zm0-13.047a4.082,4.082,0,0,1,4.077,4.077c0,2.092-2.566,5.325-4.077,6.973C12.2,24.033,9.631,20.8,9.631,18.708a4.082,4.082,0,0,1,4.077-4.077Z" transform="translate(-3.108 -9.738)"/><path class="a" d="M16.892,19.446a2.446,2.446,0,1,0-2.446,2.446A2.446,2.446,0,0,0,16.892,19.446Zm-3.262,0a.815.815,0,1,1,.815.815A.815.815,0,0,1,13.631,19.446Z" transform="translate(-3.846 -10.477)"/><rect class="a" width="3.016" height="1.809" transform="translate(31.007 25.205)"/></svg>