<svg xmlns="http://www.w3.org/2000/svg" width="39.703" height="39.704" viewBox="0 0 39.703 39.704"><defs><style>.a{fill:#f82264;}</style></defs><g transform="translate(0)"><path class="a" d="M32.111,11.535a.776.776,0,0,0,.775-.775V2.326A2.329,2.329,0,0,0,30.56,0H2.333A2.329,2.329,0,0,0,.007,2.326V37.378A2.329,2.329,0,0,0,2.333,39.7H30.56a2.329,2.329,0,0,0,2.326-2.326V31.665a.775.775,0,0,0-1.551,0v5.713a.776.776,0,0,1-.775.775H2.333a.776.776,0,0,1-.775-.775V2.326a.776.776,0,0,1,.775-.775H30.56a.776.776,0,0,1,.775.775V10.76A.776.776,0,0,0,32.111,11.535Z" transform="translate(-0.007)"/></g><g transform="translate(9.306 4.188)"><path class="a" d="M127.141,54a7.131,7.131,0,0,0-4.895,12.32.769.769,0,0,0,.083.078,7.121,7.121,0,0,0,9.622,0,.776.776,0,0,0,.083-.078A7.131,7.131,0,0,0,127.141,54Zm0,12.718a5.554,5.554,0,0,1-3.373-1.137,3.877,3.877,0,0,1,6.745,0A5.554,5.554,0,0,1,127.141,66.718ZM125.9,60.824v-.5a1.241,1.241,0,0,1,2.482,0v.5a1.241,1.241,0,0,1-2.482,0Zm5.734,3.62a5.38,5.38,0,0,0-2.285-1.915,2.777,2.777,0,0,0,.583-1.7v-.5a2.792,2.792,0,0,0-5.583,0v.5a2.777,2.777,0,0,0,.583,1.7,5.38,5.38,0,0,0-2.285,1.915,5.583,5.583,0,1,1,8.986,0Z" transform="translate(-120.007 -54)"/></g><g transform="translate(15.664 33.965)"><path class="a" d="M206.97,438h-4.188a.775.775,0,1,0,0,1.551h4.188a.775.775,0,1,0,0-1.551Z" transform="translate(-202.007 -438)"/></g><g transform="translate(8.84 29.623)"><path class="a" d="M125.794,382H114.782a.775.775,0,1,0,0,1.551h11.012a.775.775,0,1,0,0-1.551Z" transform="translate(-114.007 -382)"/></g><g transform="translate(8.84 25.28)"><path class="a" d="M125.794,326H114.782a.775.775,0,1,0,0,1.551h11.012a.775.775,0,1,0,0-1.551Z" transform="translate(-114.007 -326)"/></g><g transform="translate(5.528 20.938)"><path class="a" d="M72.611,270.227a.775.775,0,1,0,.227.548A.782.782,0,0,0,72.611,270.227Z" transform="translate(-71.287 -270)"/></g><g transform="translate(5.528 25.28)"><path class="a" d="M72.611,326.227a.775.775,0,1,0,.227.548A.783.783,0,0,0,72.611,326.227Z" transform="translate(-71.287 -326)"/></g><g transform="translate(5.528 29.623)"><path class="a" d="M72.611,382.227a.775.775,0,1,0,.227.548A.783.783,0,0,0,72.611,382.227Z" transform="translate(-71.287 -382)"/></g><g transform="translate(8.84 20.938)"><path class="a" d="M125.794,270H114.782a.775.775,0,1,0,0,1.551h11.012a.775.775,0,1,0,0-1.551Z" transform="translate(-114.007 -270)"/></g><g transform="translate(23.077 9.668)"><path class="a" d="M312.588,125.113a3.257,3.257,0,0,0-4.449,1.192l-9.759,16.9a.777.777,0,0,0-.1.3l-.687,6.153a.775.775,0,0,0,1.23.71l4.985-3.671a.774.774,0,0,0,.212-.237l9.759-16.9A3.261,3.261,0,0,0,312.588,125.113Zm-13.256,22.96.359-3.213,2.244,1.3Zm3.734-3.055-2.955-1.706,7.831-13.564,2.955,1.706Zm9.371-16.231-.764,1.324-2.955-1.706.764-1.324a1.706,1.706,0,0,1,2.955,1.706Z" transform="translate(-297.589 -124.675)"/></g></svg>