<svg xmlns="http://www.w3.org/2000/svg" width="44.262" height="44.262" viewBox="0 0 44.262 44.262"><defs><style>.a{fill:#f82264;}</style></defs><g transform="translate(0)"><path class="a" d="M.1,255.053a.865.865,0,0,0,.762.457H5.187v12.622a.865.865,0,0,0,.864.865H38.211a.865.865,0,0,0,.864-.865V255.509H43.4a.864.864,0,0,0,.719-1.344l-5.187-7.78a.864.864,0,0,0-.719-.385H34.926a.865.865,0,0,0,0,1.729h2.822l4.034,6.051h-14l-4.034-6.051h3.4a.865.865,0,0,0,0-1.729H6.052a.864.864,0,0,0-.719.385l-5.187,7.78a.865.865,0,0,0-.043.888Zm6.814.457H16.944a.864.864,0,0,0,.719-.385l3.6-5.4v17.547H6.916Zm19.683-.385a.864.864,0,0,0,.719.385H37.346v11.757H23V249.72Zm-20.085-7.4h14l-4.034,6.051h-14Z" transform="translate(0 -224.733)"/><path class="a" d="M104.645,2.164A4.6,4.6,0,0,0,100.755,0,4.768,4.768,0,0,0,96,4.925c0,2.989,2.419,4.953,6.081,7.924.642.521,1.305,1.059,2.01,1.647a.865.865,0,0,0,1.107,0c.7-.587,1.368-1.126,2.01-1.647,3.662-2.972,6.081-4.935,6.081-7.924A4.768,4.768,0,0,0,108.535,0,4.6,4.6,0,0,0,104.645,2.164Zm6.916,2.761c0,2.166-2.165,3.923-5.442,6.582-.476.386-.964.783-1.474,1.2-.51-.42-1-.816-1.474-1.2-3.277-2.659-5.442-4.416-5.442-6.582a3.046,3.046,0,0,1,3.026-3.2c2.257,0,3.029,2.513,3.06,2.617a.864.864,0,0,0,1.661,0c.008-.026.78-2.617,3.06-2.617A3.046,3.046,0,0,1,111.561,4.925Z" transform="translate(-87.701)"/><path class="a" d="M312.051,85.806a.862.862,0,0,0,.569-.214c.47-.411.912-.788,1.34-1.153,2.4-2.049,4.142-3.53,4.142-5.732A3.551,3.551,0,0,0,314.645,75a3.217,3.217,0,0,0-2.594,1.3,3.217,3.217,0,0,0-2.593-1.3A3.551,3.551,0,0,0,306,78.707c0,2.2,1.737,3.683,4.142,5.732.428.365.871.742,1.34,1.153A.863.863,0,0,0,312.051,85.806Zm-4.322-7.1a1.835,1.835,0,0,1,1.729-1.978c1.274,0,1.739,1.563,1.761,1.637a.864.864,0,0,0,1.665,0c.019-.067.483-1.638,1.761-1.638a1.835,1.835,0,0,1,1.729,1.978c0,1.4-1.33,2.538-3.534,4.416-.256.218-.518.441-.788.674-.27-.233-.532-.455-.788-.674C309.059,81.245,307.729,80.111,307.729,78.707Z" transform="translate(-279.546 -68.516)"/><circle class="a" cx="1" cy="1" r="1" transform="translate(30 21.55)"/></g></svg>