<svg xmlns="http://www.w3.org/2000/svg" width="42.172" height="42.172" viewBox="0 0 42.172 42.172"><defs><style>.a{fill:#f82264;}</style></defs><g transform="translate(0 -0.002)"><g transform="translate(12.025 30.478)"><path class="a" d="M146.823,370a.824.824,0,1,0,.824.824A.824.824,0,0,0,146.823,370Z" transform="translate(-145.999 -370.002)"/></g><g transform="translate(0 0.002)"><g transform="translate(0)"><path class="a" d="M37.077,15.652,41.931,10.8a.824.824,0,0,0-.34-1.369L29.771,5.78a8.238,8.238,0,0,0-15.5-.62L.578,9.429A.824.824,0,0,0,.241,10.8l4.981,4.981L2.08,21.016a.824.824,0,0,0,.446,1.205L7.083,23.74V36.408a.824.824,0,0,0,.534.771c2.786,1.045,13.139,4.927,13.194,4.947a.821.821,0,0,0,.527.007l.007,0L36.172,37.19a.824.824,0,0,0,.563-.781V23.4l4.86-1.527a.824.824,0,0,0,.336-1.368ZM30.146,8.239c0-.209-.009-.418-.025-.626L39.8,10.6l-4.11,4.11-6.715-2.238A8.26,8.26,0,0,0,30.146,8.239ZM15.676,6.095A6.589,6.589,0,0,1,28.5,8.239a6.589,6.589,0,0,1-6.589,6.589,6.595,6.595,0,0,1-6.233-8.733ZM2.369,10.6,13.76,7.044a8.3,8.3,0,0,0-.088,1.194,8.187,8.187,0,0,0,.913,3.77l-8.1,2.7ZM4.021,20.983l2.6-4.341L19.851,21.05l-2.6,4.341ZM20.262,40.162,8.73,35.838V24.289c9.073,3.008,8.63,2.916,8.882,2.916a.824.824,0,0,0,.706-.4l1.943-3.238Zm.824-20.436L8.864,15.652l6.655-2.218a8.234,8.234,0,0,0,12.411.426l5.377,1.792Zm14,16.089L21.909,40.208V22.942l2.92,3.65a.824.824,0,0,0,.89.271l9.369-2.944ZM25.763,25.122,22.467,21l13.223-4.407L39.8,20.71Z" transform="translate(0 -0.002)"/></g></g><g transform="translate(15.135 31.567)"><path class="a" d="M186.7,383.959l-1.832-.687a.824.824,0,1,0-.578,1.542l1.832.687a.824.824,0,0,0,.578-1.542Z" transform="translate(-183.757 -383.219)"/></g><g transform="translate(12.025 33.919)"><path class="a" d="M152.05,413.685l-4.942-1.853a.824.824,0,1,0-.578,1.542l4.942,1.853a.824.824,0,1,0,.578-1.542Z" transform="translate(-145.995 -411.779)"/></g><g transform="translate(18.614 4.944)"><path class="a" d="M233.994,60.242a.824.824,0,0,0-1.165,0l-4.36,4.36L227.4,63.537a.824.824,0,0,0-1.165,1.165l1.647,1.647a.824.824,0,0,0,1.165,0l4.942-4.942A.824.824,0,0,0,233.994,60.242Z" transform="translate(-225.998 -60.001)"/></g></g></svg>